<svg xmlns="http://www.w3.org/2000/svg" width="20.123" height="26.831" viewBox="0 0 20.123 26.831">
  <path id="Icon_awesome-file-download" data-name="Icon awesome-file-download" d="M11.738,7.127V0H1.258A1.255,1.255,0,0,0,0,1.258V25.573a1.255,1.255,0,0,0,1.258,1.258H18.865a1.255,1.255,0,0,0,1.258-1.258V8.385H13A1.261,1.261,0,0,1,11.738,7.127ZM15.745,18.2l-5.053,5.015a.894.894,0,0,1-1.26,0L4.379,18.2a.838.838,0,0,1,.59-1.434H8.385V12.577a.838.838,0,0,1,.838-.838H10.9a.838.838,0,0,1,.838.838v4.192h3.416A.839.839,0,0,1,15.745,18.2ZM19.756,5.5,14.626.367A1.257,1.257,0,0,0,13.735,0h-.32V6.708h6.708v-.32A1.254,1.254,0,0,0,19.756,5.5Z"/>
</svg>
