<svg xmlns="http://www.w3.org/2000/svg" xmlns:xlink="http://www.w3.org/1999/xlink" width="297.052" height="86.75" viewBox="0 0 297.052 86.75">
  <defs>
    <clipPath id="clip-path">
      <rect id="Rectángulo_1" data-name="Rectángulo 1" width="297.052" height="86.75" transform="translate(0 0)" fill="none"/>
    </clipPath>
  </defs>
  <g id="Logo" transform="translate(0 0)">
    <g id="Grupo_1" data-name="Grupo 1" transform="translate(0 0)" clip-path="url(#clip-path)">
      <path id="Trazado_1" data-name="Trazado 1" d="M111.376,75.092h4.416a5.565,5.565,0,0,1,1.55.211,5.664,5.664,0,0,1,3.4,2.709,6,6,0,0,1,.561,1.414,6.221,6.221,0,0,1,.2,1.57,6.331,6.331,0,0,1-.2,1.59,6.136,6.136,0,0,1-.561,1.425,5.717,5.717,0,0,1-.881,1.209,5.613,5.613,0,0,1-1.151.932,5.535,5.535,0,0,1-1.371.6,5.6,5.6,0,0,1-1.55.211h-4.416V85.616H112.5v-9.17h-1.127Zm2.662,1.354v9.17h1.848a3.43,3.43,0,0,0,1.546-.36,4.055,4.055,0,0,0,1.265-.983,4.719,4.719,0,0,0,.854-1.465A5.154,5.154,0,0,0,119.864,81a5.008,5.008,0,0,0-.313-1.785,4.63,4.63,0,0,0-.854-1.445,3.994,3.994,0,0,0-1.265-.968,3.49,3.49,0,0,0-1.546-.353Z" transform="translate(-1.062 -0.716)" fill="#707071"/>
      <path id="Trazado_2" data-name="Trazado 2" d="M122.888,82.941a5,5,0,0,1,.31-1.754,4,4,0,0,1,.842-1.359,3.687,3.687,0,0,1,1.284-.874,4.284,4.284,0,0,1,1.637-.305,4.329,4.329,0,0,1,1.648.305,3.658,3.658,0,0,1,1.281.866,3.96,3.96,0,0,1,.83,1.351,5.292,5.292,0,0,1,0,3.5,4.081,4.081,0,0,1-.83,1.367,3.713,3.713,0,0,1-1.281.888,4.185,4.185,0,0,1-1.648.317,4.24,4.24,0,0,1-1.661-.313,3.683,3.683,0,0,1-1.276-.881,4.035,4.035,0,0,1-.83-1.359,5.023,5.023,0,0,1-.306-1.746m1.543,0a3.747,3.747,0,0,0,.2,1.261,2.9,2.9,0,0,0,.548.959,2.461,2.461,0,0,0,.807.611,2.259,2.259,0,0,0,.975.215,2.407,2.407,0,0,0,1.005-.211,2.368,2.368,0,0,0,.811-.607,2.864,2.864,0,0,0,.54-.959,3.852,3.852,0,0,0,.2-1.269,4.026,4.026,0,0,0-.2-1.308,2.765,2.765,0,0,0-.536-.955,2.21,2.21,0,0,0-.81-.579,2.6,2.6,0,0,0-1.01-.2,2.449,2.449,0,0,0-.975.2,2.3,2.3,0,0,0-.807.579,2.753,2.753,0,0,0-.548.955,3.944,3.944,0,0,0-.2,1.308" transform="translate(-1.172 -0.75)" fill="#707071"/>
      <path id="Trazado_3" data-name="Trazado 3" d="M138.589,81.046a2.124,2.124,0,0,0-.834-.862,2.423,2.423,0,0,0-1.171-.274,2.215,2.215,0,0,0-.956.212,2.322,2.322,0,0,0-.779.6,2.892,2.892,0,0,0-.524.951,3.841,3.841,0,0,0-.192,1.249,3.7,3.7,0,0,0,.192,1.229,2.822,2.822,0,0,0,.529.936,2.362,2.362,0,0,0,.778.6,2.226,2.226,0,0,0,.952.207,2.332,2.332,0,0,0,1.307-.364,2.494,2.494,0,0,0,.885-1.069l1.205.6a3.913,3.913,0,0,1-.579.9,3.6,3.6,0,0,1-1.734,1.116,3.882,3.882,0,0,1-1.1.152,3.822,3.822,0,0,1-1.562-.317,3.674,3.674,0,0,1-1.238-.888,4.088,4.088,0,0,1-.809-1.363,5.005,5.005,0,0,1-.29-1.731,4.775,4.775,0,0,1,.305-1.73,4.155,4.155,0,0,1,.838-1.359,3.869,3.869,0,0,1,1.245-.888,3.679,3.679,0,0,1,1.527-.321,4,4,0,0,1,1.453.265,3.308,3.308,0,0,1,1.2.807h.822v1.347Z" transform="translate(-1.265 -0.749)" fill="#707071"/>
      <path id="Trazado_4" data-name="Trazado 4" d="M143,83.129a3.605,3.605,0,0,0,.052.63,3.247,3.247,0,0,0,.145.545,2.251,2.251,0,0,0,.928,1.179,2.687,2.687,0,0,0,1.445.4A4.365,4.365,0,0,0,146.8,85.7a5.959,5.959,0,0,0,1.257-.553l.587.994a6.414,6.414,0,0,1-1.606.815,5.345,5.345,0,0,1-1.676.265,4.16,4.16,0,0,1-1.523-.273,3.248,3.248,0,0,1-1.205-.815,3.8,3.8,0,0,1-.791-1.347,5.632,5.632,0,0,1-.285-1.879,5.447,5.447,0,0,1,.243-1.64,3.9,3.9,0,0,1,.724-1.348,3.467,3.467,0,0,1,1.194-.912,3.854,3.854,0,0,1,1.66-.337,3.718,3.718,0,0,1,1.531.278,2.81,2.81,0,0,1,1,.737,3.207,3.207,0,0,1,.587,1.045,6.1,6.1,0,0,1,.277,1.2c.026.2.044.4.052.6s.012.4.012.6Zm2.279-3.234a2.477,2.477,0,0,0-.889.145,1.785,1.785,0,0,0-.646.415,2.018,2.018,0,0,0-.428.662,4.01,4.01,0,0,0-.239.878h4.206a3.909,3.909,0,0,0-.145-.838,1.842,1.842,0,0,0-.349-.666,1.561,1.561,0,0,0-.6-.439,2.316,2.316,0,0,0-.908-.156" transform="translate(-1.35 -0.75)" fill="#707071"/>
      <path id="Trazado_5" data-name="Trazado 5" d="M156.3,85.651h1.143v-3.7a1.932,1.932,0,0,0-.474-1.412,1.818,1.818,0,0,0-1.359-.482,2.383,2.383,0,0,0-1.025.244,5.117,5.117,0,0,0-.98.6v4.753h1.143V87h-3.79V85.651h1.127V80.233h-1.127V78.886h2.584v.956h.016a6.04,6.04,0,0,1,.552-.431,4.146,4.146,0,0,1,.615-.353,3.722,3.722,0,0,1,.669-.235,3.056,3.056,0,0,1,.733-.086,3.613,3.613,0,0,1,1.175.179,2.305,2.305,0,0,1,.892.549,2.44,2.44,0,0,1,.568.944,4.135,4.135,0,0,1,.2,1.358v3.885h1.128V87H156.3Z" transform="translate(-1.439 -0.75)" fill="#707071"/>
      <path id="Trazado_6" data-name="Trazado 6" d="M164.154,78.862h1.9v1.183h-1.918l-.024,4.683a2.282,2.282,0,0,0,.11.776.691.691,0,0,0,.353.411,1.284,1.284,0,0,0,.548.113,2.523,2.523,0,0,0,.579-.058,2.783,2.783,0,0,0,.549-.2l.337.979a4.012,4.012,0,0,1-.791.309,3.752,3.752,0,0,1-.979.114,3.022,3.022,0,0,1-.928-.129,1.5,1.5,0,0,1-.666-.435,1.956,1.956,0,0,1-.4-.819,5.164,5.164,0,0,1-.134-1.28l.024-4.464h-1.292V78.862h1.307V76.921l1.425-.675Z" transform="translate(-1.539 -0.727)" fill="#707071"/>
      <path id="Trazado_7" data-name="Trazado 7" d="M169.258,83.129a3.617,3.617,0,0,0,.052.63,3.259,3.259,0,0,0,.145.545,2.252,2.252,0,0,0,.928,1.179,2.688,2.688,0,0,0,1.445.4,4.365,4.365,0,0,0,1.233-.175,5.93,5.93,0,0,0,1.256-.553l.588.994a6.412,6.412,0,0,1-1.606.815,5.345,5.345,0,0,1-1.676.265,4.159,4.159,0,0,1-1.523-.273,3.241,3.241,0,0,1-1.205-.815,3.8,3.8,0,0,1-.791-1.347,5.633,5.633,0,0,1-.285-1.879,5.413,5.413,0,0,1,.243-1.64,3.89,3.89,0,0,1,.724-1.348,3.471,3.471,0,0,1,1.194-.912,3.861,3.861,0,0,1,1.661-.337,3.718,3.718,0,0,1,1.531.278,2.81,2.81,0,0,1,1,.737,3.207,3.207,0,0,1,.587,1.045,6.1,6.1,0,0,1,.277,1.2c.026.2.044.4.052.6s.012.4.012.6Zm2.279-3.234a2.476,2.476,0,0,0-.888.145,1.778,1.778,0,0,0-.646.415,2.019,2.019,0,0,0-.428.662,4.006,4.006,0,0,0-.239.878h4.206a3.913,3.913,0,0,0-.145-.838,1.841,1.841,0,0,0-.349-.666,1.561,1.561,0,0,0-.6-.439,2.315,2.315,0,0,0-.908-.156" transform="translate(-1.6 -0.75)" fill="#707071"/>
      <path id="Trazado_8" data-name="Trazado 8" d="M181.748,80.5a1.206,1.206,0,0,0-.4-.375,1.831,1.831,0,0,0-.541-.212,2.7,2.7,0,0,0-.579-.066,2.233,2.233,0,0,0-.575.07,1.4,1.4,0,0,0-.451.2.976.976,0,0,0-.293.325.873.873,0,0,0-.106.427.856.856,0,0,0,.247.646,2.3,2.3,0,0,0,.827.443l1.558.548a3.072,3.072,0,0,1,1.464.916,2.157,2.157,0,0,1,.463,1.387,2.264,2.264,0,0,1-.215.99,2.2,2.2,0,0,1-.611.768,2.936,2.936,0,0,1-.952.493,4.1,4.1,0,0,1-1.237.175,3.377,3.377,0,0,1-1.543-.305,2.326,2.326,0,0,1-.916-.806h-.814V84.781h1.62a1.084,1.084,0,0,0,.146.575,1.163,1.163,0,0,0,.383.387,1.749,1.749,0,0,0,.541.22,2.648,2.648,0,0,0,.614.07,2.29,2.29,0,0,0,.587-.074,1.649,1.649,0,0,0,.5-.219,1.154,1.154,0,0,0,.341-.349.867.867,0,0,0,.125-.463.946.946,0,0,0-.255-.666,2.21,2.21,0,0,0-.866-.493l-1.55-.579a3.307,3.307,0,0,1-1.406-.858,1.907,1.907,0,0,1-.458-1.3,2.362,2.362,0,0,1,.192-.956,2.118,2.118,0,0,1,.556-.756,2.648,2.648,0,0,1,.889-.5,3.686,3.686,0,0,1,1.2-.18,3.816,3.816,0,0,1,1.457.243,2.671,2.671,0,0,1,1.057.83h.761v1.347H181.9a1,1,0,0,0-.153-.561" transform="translate(-1.688 -0.749)" fill="#707071"/>
      <path id="Trazado_9" data-name="Trazado 9" d="M188.813,75.092h3.844v1.354h-1.214v5.53a5.664,5.664,0,0,0,.223,1.695,3.119,3.119,0,0,0,.619,1.144,2.358,2.358,0,0,0,.94.646,3.384,3.384,0,0,0,1.194.2,4.032,4.032,0,0,0,1.238-.18,2.264,2.264,0,0,0,.968-.606,2.877,2.877,0,0,0,.625-1.136,5.9,5.9,0,0,0,.223-1.765v-5.53h-1.284V75.092h3.846v1.354h-1.058V81.8a6.731,6.731,0,0,1-.357,2.279,4.859,4.859,0,0,1-.974,1.669,4.106,4.106,0,0,1-1.458,1.021,4.649,4.649,0,0,1-1.8.349,4.485,4.485,0,0,1-1.758-.345,4.023,4.023,0,0,1-1.425-1.01,4.788,4.788,0,0,1-.955-1.625,6.377,6.377,0,0,1-.348-2.2v-5.5h-1.088Z" transform="translate(-1.8 -0.716)" fill="#707071"/>
      <path id="Trazado_10" data-name="Trazado 10" d="M206.354,85.651H207.5v-3.7a1.936,1.936,0,0,0-.473-1.412,1.817,1.817,0,0,0-1.358-.482,2.384,2.384,0,0,0-1.026.244,5.146,5.146,0,0,0-.98.6v4.753H204.8V87h-3.79V85.651h1.127V80.233h-1.127V78.886H203.6v.956h.016a5.914,5.914,0,0,1,.553-.431,3.979,3.979,0,0,1,.614-.353,3.673,3.673,0,0,1,.67-.235,3.041,3.041,0,0,1,.732-.086,3.614,3.614,0,0,1,1.175.179,2.3,2.3,0,0,1,.892.549,2.453,2.453,0,0,1,.569.944,4.158,4.158,0,0,1,.2,1.358v3.885h1.127V87h-3.791Z" transform="translate(-1.916 -0.75)" fill="#707071"/>
      <path id="Trazado_11" data-name="Trazado 11" d="M211.8,78.85h2.647v6.765h1.221v1.348h-3.852V85.614h1.158V80.2H211.8Zm.9-2.874a.951.951,0,0,1,.081-.388,1.12,1.12,0,0,1,.22-.321,1.08,1.08,0,0,1,.324-.219,1,1,0,0,1,.4-.082.957.957,0,0,1,.389.082,1.112,1.112,0,0,1,.32.219,1.06,1.06,0,0,1,.219.321.954.954,0,0,1,.083.388.992.992,0,0,1-.083.4,1.115,1.115,0,0,1-.219.333,1.013,1.013,0,0,1-.32.228.957.957,0,0,1-.389.082.987.987,0,0,1-.724-.31,1.179,1.179,0,0,1-.22-.333.989.989,0,0,1-.081-.4" transform="translate(-2.019 -0.714)" fill="#707071"/>
      <path id="Trazado_12" data-name="Trazado 12" d="M216.472,78.887h2.8v1.347h-.759l2,5.591,1.958-5.591h-.493V78.887h2.568v1.347h-.7L221.2,87.124h-1.44l-2.648-6.891h-.642Z" transform="translate(-2.064 -0.752)" fill="#707071"/>
      <path id="Trazado_13" data-name="Trazado 13" d="M227.227,83.129a3.607,3.607,0,0,0,.051.63,3.248,3.248,0,0,0,.146.545,2.256,2.256,0,0,0,.928,1.179,2.69,2.69,0,0,0,1.445.4,4.37,4.37,0,0,0,1.233-.175,5.961,5.961,0,0,0,1.257-.553l.587.994a6.394,6.394,0,0,1-1.605.815,5.345,5.345,0,0,1-1.676.265,4.159,4.159,0,0,1-1.523-.273,3.259,3.259,0,0,1-1.206-.815,3.828,3.828,0,0,1-.79-1.347,5.631,5.631,0,0,1-.286-1.879,5.443,5.443,0,0,1,.244-1.64,3.877,3.877,0,0,1,.724-1.348,3.483,3.483,0,0,1,1.193-.912,3.866,3.866,0,0,1,1.66-.337,3.72,3.72,0,0,1,1.532.278,2.827,2.827,0,0,1,1,.737,3.168,3.168,0,0,1,.586,1.045,6.035,6.035,0,0,1,.277,1.2q.04.3.053.6c.008.2.012.4.012.6Zm2.279-3.234a2.471,2.471,0,0,0-.888.145,1.794,1.794,0,0,0-.646.415,2,2,0,0,0-.427.662,3.905,3.905,0,0,0-.239.878h4.206a3.9,3.9,0,0,0-.146-.838,1.825,1.825,0,0,0-.349-.666,1.561,1.561,0,0,0-.6-.439,2.312,2.312,0,0,0-.908-.156" transform="translate(-2.152 -0.75)" fill="#707071"/>
      <path id="Trazado_14" data-name="Trazado 14" d="M241.024,80.6h-1.489v-.5a1.549,1.549,0,0,0-.529.1,1.629,1.629,0,0,0-.5.3,1.865,1.865,0,0,0-.412.509,2.333,2.333,0,0,0-.255.733v3.915h1.379V87h-4.025V85.652h1.119l.008-5.419h-1.127V78.886h2.592v1.119a3.268,3.268,0,0,1,.316-.466,2.307,2.307,0,0,1,.392-.375,1.7,1.7,0,0,1,1.046-.341h.768c.24,0,.479,0,.721.015Z" transform="translate(-2.242 -0.751)" fill="#707071"/>
      <path id="Trazado_15" data-name="Trazado 15" d="M247.355,80.5a1.212,1.212,0,0,0-.394-.375,1.829,1.829,0,0,0-.541-.212,2.7,2.7,0,0,0-.58-.066,2.236,2.236,0,0,0-.575.07,1.37,1.37,0,0,0-.45.2.978.978,0,0,0-.294.325.871.871,0,0,0-.105.427.856.856,0,0,0,.246.646,2.292,2.292,0,0,0,.827.443l1.557.548a3.066,3.066,0,0,1,1.465.916,2.162,2.162,0,0,1,.463,1.387,2.277,2.277,0,0,1-.215.99,2.2,2.2,0,0,1-.612.768,2.93,2.93,0,0,1-.951.493,4.106,4.106,0,0,1-1.237.175,3.369,3.369,0,0,1-1.542-.305,2.3,2.3,0,0,1-.916-.806h-.815V84.781h1.62a1.084,1.084,0,0,0,.146.575,1.162,1.162,0,0,0,.382.387,1.766,1.766,0,0,0,.543.22,2.632,2.632,0,0,0,.613.07,2.3,2.3,0,0,0,.587-.074,1.66,1.66,0,0,0,.5-.219,1.138,1.138,0,0,0,.34-.349.868.868,0,0,0,.125-.463.942.942,0,0,0-.255-.666,2.2,2.2,0,0,0-.865-.493l-1.55-.579a3.308,3.308,0,0,1-1.407-.858,1.9,1.9,0,0,1-.458-1.3,2.344,2.344,0,0,1,.192-.956,2.1,2.1,0,0,1,.557-.756,2.624,2.624,0,0,1,.889-.5,3.675,3.675,0,0,1,1.2-.18,3.818,3.818,0,0,1,1.458.243,2.649,2.649,0,0,1,1.056.83h.761v1.347h-1.606a.986.986,0,0,0-.153-.561" transform="translate(-2.314 -0.749)" fill="#707071"/>
      <path id="Trazado_16" data-name="Trazado 16" d="M250.664,78.85h2.646v6.765h1.221v1.348H250.68V85.614h1.16V80.2h-1.176Zm.9-2.874a.952.952,0,0,1,.083-.388,1.025,1.025,0,0,1,.544-.54.99.99,0,0,1,.4-.082.941.941,0,0,1,.387.082,1.109,1.109,0,0,1,.322.219,1.076,1.076,0,0,1,.218.321.952.952,0,0,1,.083.388.99.99,0,0,1-.083.4,1.132,1.132,0,0,1-.218.333,1.012,1.012,0,0,1-.322.228.941.941,0,0,1-.387.082,1,1,0,0,1-.725-.31,1.135,1.135,0,0,1-.218-.333.99.99,0,0,1-.083-.4" transform="translate(-2.39 -0.714)" fill="#707071"/>
      <path id="Trazado_17" data-name="Trazado 17" d="M258.316,78.862h1.9v1.183H258.3l-.025,4.683a2.277,2.277,0,0,0,.111.776.691.691,0,0,0,.353.411,1.286,1.286,0,0,0,.549.113,2.527,2.527,0,0,0,.578-.058,2.788,2.788,0,0,0,.549-.2l.336.979a3.964,3.964,0,0,1-.791.309,3.739,3.739,0,0,1-.978.114,3.033,3.033,0,0,1-.929-.129,1.5,1.5,0,0,1-.664-.435,1.947,1.947,0,0,1-.405-.819,5.221,5.221,0,0,1-.133-1.28l.024-4.464h-1.292V78.862h1.308V76.921l1.425-.675Z" transform="translate(-2.437 -0.727)" fill="#707071"/>
      <path id="Trazado_18" data-name="Trazado 18" d="M266.81,86.246a4.227,4.227,0,0,1-1.022.705,2.868,2.868,0,0,1-1.274.273,3.065,3.065,0,0,1-1.093-.188,2.651,2.651,0,0,1-.857-.512,2.335,2.335,0,0,1-.56-.757,2.135,2.135,0,0,1-.2-.915,2.548,2.548,0,0,1,.152-.916,2.292,2.292,0,0,1,.406-.694,2.382,2.382,0,0,1,.6-.492,3.641,3.641,0,0,1,.714-.321,4.116,4.116,0,0,1,.759-.172,5.717,5.717,0,0,1,.741-.052q.563,0,.947.036a6.611,6.611,0,0,1,.7.1l.008-.666a2.045,2.045,0,0,0-.126-.749,1.4,1.4,0,0,0-.353-.524,1.458,1.458,0,0,0-.544-.309,2.31,2.31,0,0,0-.709-.1,4.751,4.751,0,0,0-.705.051,5.454,5.454,0,0,0-.63.133,4.4,4.4,0,0,0-.54.188,2.6,2.6,0,0,0-.42.223l-.477-1.009a5.306,5.306,0,0,1,.634-.349,5.392,5.392,0,0,1,.725-.274,6.522,6.522,0,0,1,.775-.18,4.765,4.765,0,0,1,.78-.066,4.446,4.446,0,0,1,1.269.168,2.443,2.443,0,0,1,.955.521,2.3,2.3,0,0,1,.6.9,3.585,3.585,0,0,1,.212,1.3l-.008,4.056h.9V87H266.81ZM264.836,86a2.45,2.45,0,0,0,.578-.07,2.877,2.877,0,0,0,1.027-.474,2.213,2.213,0,0,0,.369-.333l.008-1.832h-1.692a2.986,2.986,0,0,0-.773.094,1.862,1.862,0,0,0-.6.274,1.246,1.246,0,0,0-.537,1.057,1.243,1.243,0,0,0,.118.561,1.084,1.084,0,0,0,.334.4,1.535,1.535,0,0,0,.512.243,2.478,2.478,0,0,0,.658.082" transform="translate(-2.496 -0.75)" fill="#707071"/>
      <path id="Trazado_19" data-name="Trazado 19" d="M276.782,80.6h-1.488v-.5a1.545,1.545,0,0,0-.528.1,1.623,1.623,0,0,0-.505.3,1.86,1.86,0,0,0-.412.509,2.336,2.336,0,0,0-.255.733v3.915h1.379V87h-4.025V85.652h1.12l.007-5.419h-1.127V78.886h2.592v1.119a3.252,3.252,0,0,1,.317-.466,2.259,2.259,0,0,1,.391-.375,1.7,1.7,0,0,1,1.046-.341h.767c.24,0,.48,0,.721.015Z" transform="translate(-2.583 -0.751)" fill="#707071"/>
      <path id="Trazado_20" data-name="Trazado 20" d="M278.522,78.85h2.647v6.765h1.221v1.348h-3.852V85.614h1.16V80.2h-1.176Zm.9-2.874a.953.953,0,0,1,.083-.388,1.077,1.077,0,0,1,.218-.321,1.088,1.088,0,0,1,.326-.219.988.988,0,0,1,.4-.082.95.95,0,0,1,.388.082,1.121,1.121,0,0,1,.321.219,1.076,1.076,0,0,1,.218.321.955.955,0,0,1,.083.388.992.992,0,0,1-.083.4,1.133,1.133,0,0,1-.218.333,1.022,1.022,0,0,1-.321.228.949.949,0,0,1-.388.082,1,1,0,0,1-.725-.31,1.133,1.133,0,0,1-.218-.333.991.991,0,0,1-.083-.4" transform="translate(-2.655 -0.714)" fill="#707071"/>
      <path id="Trazado_21" data-name="Trazado 21" d="M283.718,82.941a4.977,4.977,0,0,1,.31-1.754,4.011,4.011,0,0,1,.841-1.359,3.7,3.7,0,0,1,1.284-.874,4.29,4.29,0,0,1,1.637-.305,4.338,4.338,0,0,1,1.65.305,3.652,3.652,0,0,1,1.279.866,3.934,3.934,0,0,1,.83,1.351,5.274,5.274,0,0,1,0,3.5,4.055,4.055,0,0,1-.83,1.367,3.707,3.707,0,0,1-1.279.888,4.194,4.194,0,0,1-1.65.317,4.246,4.246,0,0,1-1.661-.313,3.7,3.7,0,0,1-1.276-.881,4.068,4.068,0,0,1-.83-1.359,5.072,5.072,0,0,1-.305-1.746m1.542,0a3.773,3.773,0,0,0,.2,1.261,2.9,2.9,0,0,0,.549.959,2.469,2.469,0,0,0,.806.611,2.263,2.263,0,0,0,.975.215,2.411,2.411,0,0,0,1.006-.211,2.368,2.368,0,0,0,.811-.607,2.917,2.917,0,0,0,.541-.959,3.879,3.879,0,0,0,.194-1.269,4.054,4.054,0,0,0-.194-1.308,2.781,2.781,0,0,0-.538-.955,2.214,2.214,0,0,0-.809-.579,2.605,2.605,0,0,0-1.011-.2,2.453,2.453,0,0,0-.975.2,2.309,2.309,0,0,0-.806.579,2.756,2.756,0,0,0-.549.955,3.97,3.97,0,0,0-.2,1.308" transform="translate(-2.705 -0.75)" fill="#707071"/>
      <path id="Trazado_22" data-name="Trazado 22" d="M298.09,80.5a1.211,1.211,0,0,0-.394-.375,1.835,1.835,0,0,0-.541-.212,2.71,2.71,0,0,0-.581-.066,2.237,2.237,0,0,0-.574.07,1.362,1.362,0,0,0-.45.2.981.981,0,0,0-.3.325.884.884,0,0,0-.1.427.856.856,0,0,0,.247.646,2.293,2.293,0,0,0,.826.443l1.558.548a3.071,3.071,0,0,1,1.465.916,2.163,2.163,0,0,1,.463,1.387,2.281,2.281,0,0,1-.215.99,2.2,2.2,0,0,1-.612.768,2.931,2.931,0,0,1-.951.493,4.108,4.108,0,0,1-1.238.175,3.375,3.375,0,0,1-1.542-.305,2.31,2.31,0,0,1-.915-.806h-.815V84.781h1.62a1.074,1.074,0,0,0,.146.575,1.161,1.161,0,0,0,.382.387,1.757,1.757,0,0,0,.542.22,2.649,2.649,0,0,0,.614.07,2.3,2.3,0,0,0,.587-.074,1.661,1.661,0,0,0,.5-.219,1.151,1.151,0,0,0,.34-.349.868.868,0,0,0,.125-.463.941.941,0,0,0-.255-.666,2.2,2.2,0,0,0-.864-.493l-1.55-.579a3.308,3.308,0,0,1-1.406-.858,1.9,1.9,0,0,1-.458-1.3,2.342,2.342,0,0,1,.192-.956,2.1,2.1,0,0,1,.556-.756,2.637,2.637,0,0,1,.889-.5,3.674,3.674,0,0,1,1.2-.18,3.818,3.818,0,0,1,1.458.243,2.646,2.646,0,0,1,1.056.83h.761v1.347h-1.607a.992.992,0,0,0-.153-.561" transform="translate(-2.797 -0.749)" fill="#707071"/>
      <path id="Trazado_23" data-name="Trazado 23" d="M137.808,39.309h4.659l-2.1-6.726H125.99l-2.1,6.726h4.937v8.456H111.086V39.309h3.486L127.316.985H139.69l12.466,38.324h3.394v8.456H137.808Zm-9.381-14.626h9.442L133.117,9.47Z" transform="translate(-1.059 -0.009)" fill="#707071"/>
      <path id="Trazado_24" data-name="Trazado 24" d="M194.113,47.757V39.734a18.845,18.845,0,0,1-3.733,4.936A15.141,15.141,0,0,1,186.26,47.2a16.02,16.02,0,0,1-6.156.926,19.455,19.455,0,0,1-3.826-.448,20.8,20.8,0,0,1-3.7-1.173,25.234,25.234,0,0,1-3.5-1.82,17.243,17.243,0,0,1-3.1-2.452,24.866,24.866,0,0,1-5.323-8.008,25.532,25.532,0,0,1-1.9-9.921,25.283,25.283,0,0,1,.8-6.388,25.708,25.708,0,0,1,2.252-5.77,23.7,23.7,0,0,1,3.5-4.891,22.547,22.547,0,0,1,4.568-3.78,22.008,22.008,0,0,1,5.415-2.438,21.2,21.2,0,0,1,6.079-.865,18.556,18.556,0,0,1,6.325.973,19.19,19.19,0,0,1,5.771,3.625h6.911V15.2h-9.534a13.263,13.263,0,0,0-2.669-3.177,12.53,12.53,0,0,0-2.715-1.636,10.385,10.385,0,0,0-4.089-.648,10.163,10.163,0,0,0-4.814,1.173,12.355,12.355,0,0,0-3.841,3.163,15.081,15.081,0,0,0-2.546,4.691,17.263,17.263,0,0,0-.093,10.876,13.629,13.629,0,0,0,2.53,4.552,11.75,11.75,0,0,0,3.95,3.1,10.977,10.977,0,0,0,4.814,1.081,8.976,8.976,0,0,0,5.709-1.913,10.633,10.633,0,0,0,3.516-5.216h-8.916V22.793h21.661V47.757Z" transform="translate(-1.513 -0.001)" fill="#707071"/>
      <path id="Trazado_25" data-name="Trazado 25" d="M210.217.985h17.959a22.516,22.516,0,0,1,6.156.834A22.844,22.844,0,0,1,248.017,12.5,23.485,23.485,0,0,1,250.3,18.08a24.115,24.115,0,0,1-2.284,18.067,23.318,23.318,0,0,1-3.564,4.751,22.523,22.523,0,0,1-16.277,6.866H210.217V39.31h3.735V9.471h-3.735ZM224.2,9.471V39.31h3.918a9.959,9.959,0,0,0,4.72-1.173,12.317,12.317,0,0,0,3.858-3.193,15.8,15.8,0,0,0,2.592-4.752,17.653,17.653,0,0,0,.957-5.878,17.424,17.424,0,0,0-.957-5.832,15.644,15.644,0,0,0-2.592-4.722,12.048,12.048,0,0,0-3.858-3.147,10.177,10.177,0,0,0-4.72-1.142Z" transform="translate(-2.004 -0.009)" fill="#707071"/>
      <path id="Trazado_26" data-name="Trazado 26" d="M254.986.985h18.76V9.471h-4.288V28.88a14.73,14.73,0,0,0,.6,4.5,8.048,8.048,0,0,0,1.684,3.024,6.416,6.416,0,0,0,2.559,1.713,9.388,9.388,0,0,0,3.24.54,11.174,11.174,0,0,0,3.317-.463,5.857,5.857,0,0,0,2.562-1.589,7.457,7.457,0,0,0,1.634-3.009,16.5,16.5,0,0,0,.57-4.721V9.471h-4.968V.985H299.42V9.471h-3.735v18.2a25.264,25.264,0,0,1-1.418,8.779,19.017,19.017,0,0,1-3.9,6.5,16.656,16.656,0,0,1-5.832,4.042,18.536,18.536,0,0,1-7.175,1.389,18.291,18.291,0,0,1-7.1-1.374,16.536,16.536,0,0,1-5.757-3.98,18.935,18.935,0,0,1-3.871-6.341,23.627,23.627,0,0,1-1.421-8.456V9.471h-4.226Z" transform="translate(-2.431 -0.009)" fill="#707071"/>
      <path id="Trazado_27" data-name="Trazado 27" d="M119.064,68.741h.987l-.939-2.693h-4.566l-.916,2.693h1.221v1.347H111V68.741h1.033l3.7-10.524h2.31l3.689,10.524h1.19v1.347h-3.853Zm-4.072-3.994h3.665l-1.848-5.309Z" transform="translate(-1.058 -0.555)" fill="#707071"/>
      <path id="Trazado_28" data-name="Trazado 28" d="M128.965,63.626a1.214,1.214,0,0,0-.4-.375,1.818,1.818,0,0,0-.541-.212,2.7,2.7,0,0,0-.579-.066,2.221,2.221,0,0,0-.574.07,1.392,1.392,0,0,0-.452.2.975.975,0,0,0-.293.325.872.872,0,0,0-.106.427.853.853,0,0,0,.248.646,2.294,2.294,0,0,0,.826.443l1.558.549a3.064,3.064,0,0,1,1.464.915,2.157,2.157,0,0,1,.463,1.387,2.277,2.277,0,0,1-.215.99,2.2,2.2,0,0,1-.611.768,2.935,2.935,0,0,1-.952.493,4.071,4.071,0,0,1-1.237.175,3.376,3.376,0,0,1-1.543-.305,2.315,2.315,0,0,1-.915-.806h-.815V67.906h1.62a1.084,1.084,0,0,0,.146.575,1.165,1.165,0,0,0,.383.387,1.754,1.754,0,0,0,.541.22,2.66,2.66,0,0,0,.614.07,2.3,2.3,0,0,0,.588-.074,1.644,1.644,0,0,0,.5-.219,1.151,1.151,0,0,0,.341-.349.867.867,0,0,0,.125-.463.946.946,0,0,0-.255-.666,2.211,2.211,0,0,0-.866-.493l-1.55-.579a3.307,3.307,0,0,1-1.406-.858,1.907,1.907,0,0,1-.458-1.3,2.361,2.361,0,0,1,.192-.956,2.12,2.12,0,0,1,.556-.756,2.647,2.647,0,0,1,.889-.5,3.684,3.684,0,0,1,1.2-.18,3.815,3.815,0,0,1,1.457.243,2.657,2.657,0,0,1,1.057.83h.76v1.347h-1.606a.993.993,0,0,0-.153-.561" transform="translate(-1.185 -0.589)" fill="#707071"/>
      <path id="Trazado_29" data-name="Trazado 29" d="M132.71,66.066a4.976,4.976,0,0,1,.31-1.754,4,4,0,0,1,.842-1.359,3.686,3.686,0,0,1,1.284-.874,4.283,4.283,0,0,1,1.637-.305,4.329,4.329,0,0,1,1.648.305,3.658,3.658,0,0,1,1.281.866,3.96,3.96,0,0,1,.83,1.351,5.291,5.291,0,0,1,0,3.5,4.08,4.08,0,0,1-.83,1.367,3.714,3.714,0,0,1-1.281.888,4.186,4.186,0,0,1-1.648.317,4.24,4.24,0,0,1-1.661-.313,3.685,3.685,0,0,1-1.276-.881,4.054,4.054,0,0,1-.83-1.359,5.021,5.021,0,0,1-.306-1.746m1.543,0a3.748,3.748,0,0,0,.2,1.261,2.9,2.9,0,0,0,.548.959,2.46,2.46,0,0,0,.807.611,2.259,2.259,0,0,0,.975.215,2.407,2.407,0,0,0,1.005-.211,2.368,2.368,0,0,0,.811-.607,2.864,2.864,0,0,0,.54-.959,3.851,3.851,0,0,0,.2-1.269,4.025,4.025,0,0,0-.2-1.308,2.764,2.764,0,0,0-.536-.955,2.21,2.21,0,0,0-.81-.579,2.6,2.6,0,0,0-1.01-.2,2.448,2.448,0,0,0-.975.2A2.3,2.3,0,0,0,135,63.8a2.754,2.754,0,0,0-.548.955,3.945,3.945,0,0,0-.2,1.308" transform="translate(-1.265 -0.589)" fill="#707071"/>
      <path id="Trazado_30" data-name="Trazado 30" d="M148.9,64.171a2.124,2.124,0,0,0-.834-.862,2.422,2.422,0,0,0-1.171-.274,2.214,2.214,0,0,0-.956.212,2.323,2.323,0,0,0-.78.6,2.9,2.9,0,0,0-.524.951,3.841,3.841,0,0,0-.192,1.249,3.7,3.7,0,0,0,.192,1.229,2.826,2.826,0,0,0,.529.936,2.363,2.363,0,0,0,.779.6,2.226,2.226,0,0,0,.952.207,2.331,2.331,0,0,0,1.307-.365,2.494,2.494,0,0,0,.886-1.069l1.205.6a3.914,3.914,0,0,1-.579.9,3.595,3.595,0,0,1-1.734,1.116,3.887,3.887,0,0,1-1.1.152,3.823,3.823,0,0,1-1.562-.317,3.675,3.675,0,0,1-1.238-.888,4.086,4.086,0,0,1-.809-1.363,5,5,0,0,1-.29-1.731,4.775,4.775,0,0,1,.305-1.73,4.158,4.158,0,0,1,.838-1.359,3.871,3.871,0,0,1,1.245-.888,3.679,3.679,0,0,1,1.527-.321,4,4,0,0,1,1.453.265,3.309,3.309,0,0,1,1.2.807h.822v1.347Z" transform="translate(-1.363 -0.588)" fill="#707071"/>
      <path id="Trazado_31" data-name="Trazado 31" d="M152.352,61.975H155v6.765h1.221v1.348h-3.852V68.739h1.159V63.321h-1.175Zm.9-2.874a.952.952,0,0,1,.082-.388,1.1,1.1,0,0,1,.219-.321,1.072,1.072,0,0,1,.326-.219.989.989,0,0,1,.4-.082.941.941,0,0,1,.387.082,1.043,1.043,0,0,1,.541.54.951.951,0,0,1,.082.388.988.988,0,0,1-.082.4,1.154,1.154,0,0,1-.219.333,1.012,1.012,0,0,1-.322.228.941.941,0,0,1-.387.082,1,1,0,0,1-.725-.31,1.154,1.154,0,0,1-.219-.333.989.989,0,0,1-.082-.4" transform="translate(-1.452 -0.554)" fill="#707071"/>
      <path id="Trazado_32" data-name="Trazado 32" d="M162.912,69.371a4.231,4.231,0,0,1-1.022.705,2.87,2.87,0,0,1-1.273.273,3.055,3.055,0,0,1-1.092-.188,2.667,2.667,0,0,1-.858-.512,2.334,2.334,0,0,1-.56-.757,2.137,2.137,0,0,1-.2-.915,2.543,2.543,0,0,1,.154-.916,2.288,2.288,0,0,1,.406-.694,2.381,2.381,0,0,1,.6-.492,3.655,3.655,0,0,1,.713-.321,4.16,4.16,0,0,1,.76-.172,5.739,5.739,0,0,1,.74-.051q.565,0,.948.036a6.509,6.509,0,0,1,.7.1l.008-.666a2.043,2.043,0,0,0-.125-.749,1.4,1.4,0,0,0-.352-.524,1.44,1.44,0,0,0-.545-.309,2.294,2.294,0,0,0-.708-.1,4.75,4.75,0,0,0-.705.051,5.453,5.453,0,0,0-.63.133,4.389,4.389,0,0,0-.54.188,2.542,2.542,0,0,0-.419.223l-.478-1.009a5.335,5.335,0,0,1,.634-.349,5.393,5.393,0,0,1,.725-.274,6.534,6.534,0,0,1,.775-.18,4.79,4.79,0,0,1,.779-.066,4.448,4.448,0,0,1,1.269.168,2.461,2.461,0,0,1,.956.521,2.307,2.307,0,0,1,.6.9,3.586,3.586,0,0,1,.212,1.3l-.008,4.056h.9v1.347h-2.356Zm-1.974-.243a2.463,2.463,0,0,0,.579-.07,2.951,2.951,0,0,0,.549-.192,2.888,2.888,0,0,0,.477-.282,2.219,2.219,0,0,0,.368-.333l.007-1.832h-1.691a2.98,2.98,0,0,0-.773.094,1.858,1.858,0,0,0-.6.274,1.264,1.264,0,0,0-.4.447,1.278,1.278,0,0,0-.141.61,1.257,1.257,0,0,0,.117.561,1.1,1.1,0,0,0,.333.4,1.548,1.548,0,0,0,.513.243,2.48,2.48,0,0,0,.658.082" transform="translate(-1.505 -0.589)" fill="#707071"/>
      <path id="Trazado_33" data-name="Trazado 33" d="M173.39,64.171a2.123,2.123,0,0,0-.834-.862,2.422,2.422,0,0,0-1.171-.274,2.213,2.213,0,0,0-.956.212,2.322,2.322,0,0,0-.78.6,2.891,2.891,0,0,0-.524.951,3.837,3.837,0,0,0-.192,1.249,3.7,3.7,0,0,0,.192,1.229,2.821,2.821,0,0,0,.529.936,2.363,2.363,0,0,0,.779.6,2.226,2.226,0,0,0,.952.207,2.332,2.332,0,0,0,1.307-.365,2.494,2.494,0,0,0,.885-1.069l1.205.6a3.913,3.913,0,0,1-.579.9A3.594,3.594,0,0,1,172.47,70.2a3.887,3.887,0,0,1-1.1.152,3.823,3.823,0,0,1-1.562-.317,3.673,3.673,0,0,1-1.238-.888,4.088,4.088,0,0,1-.809-1.363,4.982,4.982,0,0,1-.29-1.731,4.775,4.775,0,0,1,.305-1.73,4.16,4.16,0,0,1,.838-1.359,3.873,3.873,0,0,1,1.245-.888,3.678,3.678,0,0,1,1.527-.321,4,4,0,0,1,1.453.265,3.307,3.307,0,0,1,1.2.807h.822v1.347Z" transform="translate(-1.597 -0.588)" fill="#707071"/>
      <path id="Trazado_34" data-name="Trazado 34" d="M176.843,61.975h2.646v6.765h1.221v1.348h-3.852V68.739h1.159V63.321h-1.175Zm.9-2.874a.952.952,0,0,1,.082-.388,1.094,1.094,0,0,1,.219-.321,1.072,1.072,0,0,1,.326-.219.989.989,0,0,1,.4-.082.94.94,0,0,1,.387.082,1.044,1.044,0,0,1,.541.54.953.953,0,0,1,.082.388.99.99,0,0,1-.082.4,1.157,1.157,0,0,1-.219.333,1.011,1.011,0,0,1-.322.228.94.94,0,0,1-.387.082,1,1,0,0,1-.725-.31,1.152,1.152,0,0,1-.219-.333.989.989,0,0,1-.082-.4" transform="translate(-1.686 -0.554)" fill="#707071"/>
      <path id="Trazado_35" data-name="Trazado 35" d="M182.524,66.035a5,5,0,0,1,.31-1.755,4.019,4.019,0,0,1,.842-1.358,3.694,3.694,0,0,1,1.284-.874,4.281,4.281,0,0,1,1.637-.305,4.333,4.333,0,0,1,1.648.305,3.658,3.658,0,0,1,1.281.866,3.932,3.932,0,0,1,.83,1.351,5.292,5.292,0,0,1,0,3.5,4.061,4.061,0,0,1-.83,1.367,3.714,3.714,0,0,1-1.281.888,4.189,4.189,0,0,1-1.648.317,4.25,4.25,0,0,1-1.66-.313,3.685,3.685,0,0,1-1.277-.882,4.015,4.015,0,0,1-.83-1.359,5.011,5.011,0,0,1-.306-1.745m1.543,0a3.771,3.771,0,0,0,.2,1.261,2.881,2.881,0,0,0,.548.959,2.462,2.462,0,0,0,.806.61,2.254,2.254,0,0,0,.976.216,2.4,2.4,0,0,0,1.006-.212,2.338,2.338,0,0,0,.809-.606,2.864,2.864,0,0,0,.542-.96,3.842,3.842,0,0,0,.2-1.268,4.027,4.027,0,0,0-.2-1.308,2.83,2.83,0,0,0-.536-.956,2.217,2.217,0,0,0-.811-.578,2.59,2.59,0,0,0-1.01-.2,2.457,2.457,0,0,0-.976.2,2.3,2.3,0,0,0-.806.578,2.753,2.753,0,0,0-.548.956,3.968,3.968,0,0,0-.2,1.308m2.421-7.511h1.878v.134l-2.339,2.209H184.82Z" transform="translate(-1.74 -0.558)" fill="#707071"/>
      <path id="Trazado_36" data-name="Trazado 36" d="M198.2,68.775h1.144v-3.7a1.932,1.932,0,0,0-.474-1.412,1.821,1.821,0,0,0-1.36-.482,2.386,2.386,0,0,0-1.024.244,5.09,5.09,0,0,0-.98.6v4.753h1.143v1.347h-3.79V68.775h1.128V63.357h-1.128V62.01h2.585v.956h.016a6.293,6.293,0,0,1,.551-.431,4.224,4.224,0,0,1,.615-.353,3.8,3.8,0,0,1,.669-.235,3.055,3.055,0,0,1,.733-.086,3.6,3.6,0,0,1,1.174.179,2.294,2.294,0,0,1,.893.549,2.44,2.44,0,0,1,.568.944,4.109,4.109,0,0,1,.2,1.358v3.885h1.129v1.347H198.2Z" transform="translate(-1.839 -0.589)" fill="#707071"/>
      <path id="Trazado_37" data-name="Trazado 37" d="M217.762,70.132v-2.38a4.075,4.075,0,0,1-.743,1.077,4.228,4.228,0,0,1-1,.756,4.738,4.738,0,0,1-1.172.446,5.417,5.417,0,0,1-1.263.15,5.722,5.722,0,0,1-2.137-.388,4.883,4.883,0,0,1-1.775-1.232,5.782,5.782,0,0,1-1.214-2.006,7.087,7.087,0,0,1-.419-2.42,6.847,6.847,0,0,1,.419-2.4,6.079,6.079,0,0,1,1.176-1.966,5.412,5.412,0,0,1,4.068-1.794,5.25,5.25,0,0,1,1.937.322,5.37,5.37,0,0,1,1.386.78,6.265,6.265,0,0,1,.921.873h.76v1.394h-1.684a3.94,3.94,0,0,0-1.39-1.409,3.88,3.88,0,0,0-3.591-.117,4.014,4.014,0,0,0-1.288,1.034,4.864,4.864,0,0,0-.834,1.5,5.344,5.344,0,0,0-.3,1.785,5.564,5.564,0,0,0,.329,1.934,4.37,4.37,0,0,0,.838,1.449,4.127,4.127,0,0,0,1.257.919,3.727,3.727,0,0,0,1.657.365,3.567,3.567,0,0,0,3.813-3.015H214.2V64.44h5.021v5.692Z" transform="translate(-1.983 -0.552)" fill="#707071"/>
      <path id="Trazado_38" data-name="Trazado 38" d="M227.941,63.726h-1.488v-.5a1.537,1.537,0,0,0-.528.1,1.618,1.618,0,0,0-.506.3,1.9,1.9,0,0,0-.411.509,2.359,2.359,0,0,0-.256.733v3.915h1.38v1.347h-4.026V68.777h1.121l.008-5.419h-1.129V62.011H224.7v1.119a3.362,3.362,0,0,1,.318-.466,2.223,2.223,0,0,1,.391-.375,1.7,1.7,0,0,1,1.046-.341h.767c.241,0,.479,0,.721.015Z" transform="translate(-2.117 -0.59)" fill="#707071"/>
      <path id="Trazado_39" data-name="Trazado 39" d="M231.608,66.254a3.614,3.614,0,0,0,.052.63,3.261,3.261,0,0,0,.145.545,2.25,2.25,0,0,0,.927,1.179,2.69,2.69,0,0,0,1.445.4,4.379,4.379,0,0,0,1.234-.175,5.925,5.925,0,0,0,1.255-.553l.589.994a6.429,6.429,0,0,1-1.606.815,5.351,5.351,0,0,1-1.677.265,4.155,4.155,0,0,1-1.522-.273,3.261,3.261,0,0,1-1.206-.815,3.812,3.812,0,0,1-.791-1.347,5.658,5.658,0,0,1-.285-1.879,5.412,5.412,0,0,1,.243-1.64,3.9,3.9,0,0,1,.725-1.348,3.471,3.471,0,0,1,1.193-.912,3.853,3.853,0,0,1,1.66-.337,3.711,3.711,0,0,1,1.53.278,2.806,2.806,0,0,1,1,.737,3.2,3.2,0,0,1,.587,1.045,6.1,6.1,0,0,1,.277,1.2q.04.3.053.6c.008.2.01.4.01.6Zm2.28-3.234a2.481,2.481,0,0,0-.889.145,1.8,1.8,0,0,0-.647.415,2.046,2.046,0,0,0-.426.662,3.946,3.946,0,0,0-.239.878h4.2a3.912,3.912,0,0,0-.144-.838,1.814,1.814,0,0,0-.351-.666,1.554,1.554,0,0,0-.6-.439,2.319,2.319,0,0,0-.908-.156" transform="translate(-2.194 -0.589)" fill="#707071"/>
      <path id="Trazado_40" data-name="Trazado 40" d="M240.056,62.01h2.584v.948h.015a6.305,6.305,0,0,1,.561-.427,4.275,4.275,0,0,1,.615-.349,3.642,3.642,0,0,1,.67-.235,3,3,0,0,1,.724-.086,3.28,3.28,0,0,1,1.512.325,2.213,2.213,0,0,1,.978,1.014q.3-.266.627-.513a4.62,4.62,0,0,1,.684-.427,4.112,4.112,0,0,1,.749-.289,2.991,2.991,0,0,1,.814-.11,3.624,3.624,0,0,1,1.182.179,2.312,2.312,0,0,1,.894.549,2.393,2.393,0,0,1,.559.944,4.276,4.276,0,0,1,.192,1.358v3.885h1.127v1.347h-3.79V68.775H251.9v-3.7a1.944,1.944,0,0,0-.469-1.412,1.806,1.806,0,0,0-1.355-.482,2.564,2.564,0,0,0-1.073.251,3.258,3.258,0,0,0-.94.635v4.714h1.12v1.347H245.4V68.775h1.142v-3.7a1.932,1.932,0,0,0-.474-1.412,1.816,1.816,0,0,0-1.358-.482,2.387,2.387,0,0,0-1.026.244,5.14,5.14,0,0,0-.978.6v4.753h1.144v1.347h-3.791V68.775h1.127V63.357h-1.127Z" transform="translate(-2.289 -0.589)" fill="#707071"/>
      <path id="Trazado_41" data-name="Trazado 41" d="M256.735,61.975h2.647v6.765H260.6v1.348h-3.852V68.739h1.158V63.321h-1.174Zm.9-2.874a.97.97,0,0,1,.081-.388,1.117,1.117,0,0,1,.22-.321,1.061,1.061,0,0,1,.324-.219,1,1,0,0,1,.4-.082.956.956,0,0,1,.389.082,1.093,1.093,0,0,1,.32.219,1.063,1.063,0,0,1,.219.321.953.953,0,0,1,.083.388.989.989,0,0,1-.083.4,1.118,1.118,0,0,1-.219.333,1.015,1.015,0,0,1-.32.228.956.956,0,0,1-.389.082,1,1,0,0,1-.4-.082.988.988,0,0,1-.324-.228,1.176,1.176,0,0,1-.22-.333,1.008,1.008,0,0,1-.081-.4" transform="translate(-2.448 -0.554)" fill="#707071"/>
      <path id="Trazado_42" data-name="Trazado 42" d="M267.294,69.371a4.208,4.208,0,0,1-1.022.705A2.864,2.864,0,0,1,265,70.35a3.055,3.055,0,0,1-1.092-.188,2.661,2.661,0,0,1-.859-.512,2.363,2.363,0,0,1-.56-.757,2.136,2.136,0,0,1-.2-.915,2.546,2.546,0,0,1,.153-.916,2.325,2.325,0,0,1,.406-.694,2.381,2.381,0,0,1,.6-.492,3.646,3.646,0,0,1,.712-.321,4.185,4.185,0,0,1,.759-.172,5.77,5.77,0,0,1,.741-.051c.376,0,.691.012.949.036a6.614,6.614,0,0,1,.7.1l.008-.666a2.046,2.046,0,0,0-.126-.749,1.366,1.366,0,0,0-.353-.524,1.433,1.433,0,0,0-.543-.309,2.3,2.3,0,0,0-.71-.1,4.716,4.716,0,0,0-.7.051,5.351,5.351,0,0,0-.631.133,4.414,4.414,0,0,0-.541.188,2.579,2.579,0,0,0-.419.223l-.477-1.009a5.311,5.311,0,0,1,.633-.349,5.5,5.5,0,0,1,.725-.274,6.621,6.621,0,0,1,.774-.18,4.8,4.8,0,0,1,.781-.066,4.446,4.446,0,0,1,1.269.168,2.456,2.456,0,0,1,.955.521,2.307,2.307,0,0,1,.6.9,3.566,3.566,0,0,1,.213,1.3l-.008,4.056h.9v1.347h-2.357Zm-1.973-.243a2.464,2.464,0,0,0,.578-.07,2.923,2.923,0,0,0,.549-.192,2.838,2.838,0,0,0,.477-.282,2.167,2.167,0,0,0,.369-.333l.008-1.832H265.61a2.969,2.969,0,0,0-.772.094,1.84,1.84,0,0,0-.6.274,1.262,1.262,0,0,0-.4.447,1.288,1.288,0,0,0-.14.61,1.259,1.259,0,0,0,.117.561,1.088,1.088,0,0,0,.333.4,1.568,1.568,0,0,0,.513.243,2.476,2.476,0,0,0,.659.082" transform="translate(-2.501 -0.589)" fill="#707071"/>
      <path id="Trazado_43" data-name="Trazado 43" d="M271.853,57.9h2.63V68.738h1.222v1.347h-3.853V68.738h1.174V59.246h-1.174Z" transform="translate(-2.592 -0.552)" fill="#707071"/>
      <path id="Trazado_44" data-name="Trazado 44" d="M286.577,57.9h2.56V68.739h1.19v1.347H287.68V69.42a2.829,2.829,0,0,1-.908.623,2.939,2.939,0,0,1-1.175.223,4.047,4.047,0,0,1-1.531-.286,3.44,3.44,0,0,1-1.229-.838,3.894,3.894,0,0,1-.813-1.355,5.317,5.317,0,0,1-.3-1.836,4.945,4.945,0,0,1,.283-1.71,3.737,3.737,0,0,1,.8-1.316,3.557,3.557,0,0,1,1.245-.845,4.5,4.5,0,0,1,2.693-.172,2.815,2.815,0,0,1,.931.45V59.247h-1.1ZM285.786,69a2.723,2.723,0,0,0,1.089-.192,2.506,2.506,0,0,0,.805-.575V63.687a2.439,2.439,0,0,0-.9-.477,3.7,3.7,0,0,0-1.04-.149,2.473,2.473,0,0,0-.972.191,2.3,2.3,0,0,0-.8.561,2.672,2.672,0,0,0-.537.9,3.551,3.551,0,0,0-.194,1.222,4.262,4.262,0,0,0,.186,1.323,2.768,2.768,0,0,0,.525.959,2.148,2.148,0,0,0,.807.583,2.634,2.634,0,0,0,1.026.2" transform="translate(-2.686 -0.552)" fill="#707071"/>
      <path id="Trazado_45" data-name="Trazado 45" d="M293.729,66.254a3.609,3.609,0,0,0,.052.63,3.222,3.222,0,0,0,.145.545,2.254,2.254,0,0,0,.927,1.179,2.692,2.692,0,0,0,1.445.4,4.374,4.374,0,0,0,1.234-.175,5.962,5.962,0,0,0,1.257-.553l.587.994a6.426,6.426,0,0,1-1.6.815,5.354,5.354,0,0,1-1.676.265,4.167,4.167,0,0,1-1.524-.273,3.248,3.248,0,0,1-1.205-.815,3.8,3.8,0,0,1-.791-1.347,5.631,5.631,0,0,1-.285-1.879,5.44,5.44,0,0,1,.242-1.64,3.929,3.929,0,0,1,.725-1.348,3.477,3.477,0,0,1,1.194-.912,3.852,3.852,0,0,1,1.661-.337,3.721,3.721,0,0,1,1.53.278,2.787,2.787,0,0,1,1,.737,3.2,3.2,0,0,1,.588,1.045,6.173,6.173,0,0,1,.278,1.2q.039.3.05.6t.012.6Zm2.279-3.234a2.475,2.475,0,0,0-.888.145,1.771,1.771,0,0,0-.646.415,2.023,2.023,0,0,0-.428.662,4.007,4.007,0,0,0-.239.878h4.2a3.9,3.9,0,0,0-.144-.838,1.838,1.838,0,0,0-.349-.666,1.565,1.565,0,0,0-.6-.439,2.323,2.323,0,0,0-.909-.156" transform="translate(-2.787 -0.589)" fill="#707071"/>
      <path id="Trazado_46" data-name="Trazado 46" d="M44.361,86.685H0L22.18,48.271ZM13.8,78.716H30.557L22.18,64.209Z" transform="translate(0 -0.46)" fill="#2c6cbf"/>
      <path id="Trazado_47" data-name="Trazado 47" d="M50,87.215,27.816,48.8h44.36ZM41.62,56.769,50,71.276l8.375-14.506Z" transform="translate(-0.265 -0.465)" fill="#2c6cbf"/>
      <path id="Trazado_48" data-name="Trazado 48" d="M99.992,86.685H55.633L77.812,48.27ZM69.436,78.716H86.188L77.812,64.209Z" transform="translate(-0.53 -0.46)" fill="#2c6cbf"/>
      <path id="Trazado_49" data-name="Trazado 49" d="M47.009,45.422H24.163L35.585,25.638ZM31.066,41.437h9.041l-4.521-7.83Z" transform="translate(-0.23 -0.244)" fill="#4393d9"/>
      <path id="Trazado_50" data-name="Trazado 50" d="M50.1,45.611,38.675,25.826H61.523Zm-4.522-15.8L50.1,37.641l4.52-7.831Z" transform="translate(-0.369 -0.246)" fill="#4393d9"/>
      <path id="Trazado_51" data-name="Trazado 51" d="M76.035,45.422H53.19L64.613,25.638ZM60.093,41.437h9.04l-4.52-7.83Z" transform="translate(-0.507 -0.244)" fill="#4393d9"/>
      <path id="Trazado_52" data-name="Trazado 52" d="M62.663,21.776H37.515L50.086,0ZM46.716,16.464h6.742l-3.372-5.839Z" transform="translate(-0.358 0)" fill="#8de8f2"/>
    </g>
  </g>
</svg>
